<svg version="1.1" xmlns="http://www.w3.org/2000/svg" xmlns:xlink="http://www.w3.org/1999/xlink" width="90.35988" height="180.80272" viewBox="0,0,90.35988,180.80272"><g transform="translate(-191.12069,-95.7086)"><g data-paper-data="{&quot;isPaintingLayer&quot;:true}" fill-rule="nonzero" stroke="none" stroke-width="0.81451" stroke-linecap="butt" stroke-linejoin="miter" stroke-miterlimit="10" stroke-dasharray="" stroke-dashoffset="0" style="mix-blend-mode: normal"><path d="M235.74346,201.94337c3.55106,3.55035 20.43943,-9.93098 11.31671,9.46922c-9.12272,19.40021 -5.31193,65.01379 -5.31193,65.01379c0,0 -0.0939,0.03131 -0.27722,0.08493c-3.76583,-0.06884 -7.53405,-0.08304 -11.29871,-0.18033c-0.83903,-0.02168 -1.68141,-0.13687 -2.5272,-0.2843c-6.47538,-35.49641 5.82895,-73.29071 8.09834,-74.10332z" fill="#854007"/><path d="M193.0356,133.8275c2.7693,-25.9013 23.7021,-38.1189 45.2866,-38.1189c23.3763,0 40.9696,17.9191 42.5172,38.8519c0.8145,10.7515 1.5475,46.5898 -2.4435,62.717c-3.9911,16.1272 -17.349,34.2093 -41.0512,35.1052c-38.5261,1.4662 -44.5534,-28.5891 -45.7752,-41.6212c-0.4887,-5.05 -1.1403,-32.6617 1.4661,-56.934z" fill="#20a600"/><path d="M279.6991,189.7026c-0.4073,2.8508 -0.8145,5.4572 -1.3847,7.6564c-3.9911,16.1272 -17.349,34.2092 -41.0511,35.1052c-37.8745,1.3847 -44.3091,-27.6932 -45.6938,-41.0511c10.67,11.7289 26.0642,19.1409 43.3317,19.1409c18.0821,0 34.2093,-8.1451 44.7979,-20.8514z" fill="#1c9400"/></g></g></svg>